<svg xmlns="http://www.w3.org/2000/svg" xmlns:xlink="http://www.w3.org/1999/xlink" version="1.1" id="Your_Icon" x="0px" y="0px" width="100px" height="100px" viewBox="5.0 -10.0 100.0 135.0" enable-background="new 0 0 100 100" xml:space="preserve">
<g>
	<g>
		<g>
			<g>
				<g>
					<g>
						<g>
							<line x1="29.729" y1="66.651" x2="29.673" y2="66.797"/>
						</g>
					</g>
				</g>
			</g>
		</g>
		<g>
			<g>
				<g>
					<g>
						<line x1="25.639" y1="67.522" x2="25.524" y2="67.631"/>
					</g>
				</g>
			</g>
		</g>
		<polygon points="4.841,50.213 4.841,50.206 4.841,50.198   "/>
		<g>
			<g>
				<g>
					<g>
						
							<rect x="66.621" y="33.574" transform="matrix(0.8189 0.5739 -0.5739 0.8189 31.4544 -32.1638)" width="0.157" height="0.384"/>
					</g>
				</g>
			</g>
			<g>
				<g>
					<g>
						<line x1="31.386" y1="63.402" x2="31.458" y2="63.543"/>
					</g>
				</g>
			</g>
			<g>
				<g>
					<g>
						
							<rect x="66.507" y="66.567" transform="matrix(0.5704 0.8214 -0.8214 0.5704 83.3951 -26.1539)" width="0.385" height="0.157"/>
					</g>
				</g>
			</g>
		</g>
		<g>
			<path d="M68.137,33.246c-0.568,0.237-1.326-0.285-1.562-0.521c-0.221-0.22-0.837-2.099-1.137-3.33c-0.016,0-0.033,0-0.048-0.016     c-0.315-0.032-0.315,0.157-0.253,0.411c0.079,0.268,0.68,2.099,0.757,2.415c0.081,0.331,0.175,0.504,0.381,0.615     c0.204,0.126,0.488,0.426,0.536,0.82c0.047,0.3-0.048,0.552-0.19,0.774c-0.077,0.111-0.094,0.237,0.063,0.252     c0.616,0.016,1.278-0.095,1.483-0.3C68.294,34.225,68.262,33.576,68.137,33.246z"/>
			<path d="M68.137,67.15c-0.568-0.223-1.326,0.3-1.562,0.521c-0.221,0.22-0.837,2.114-1.137,3.345c-0.016,0-0.033,0-0.048,0     c-0.315,0.048-0.315-0.141-0.253-0.41c0.079-0.268,0.68-2.083,0.757-2.415c0.081-0.331,0.175-0.489,0.381-0.614     c0.204-0.127,0.488-0.427,0.536-0.821c0.047-0.285-0.048-0.537-0.19-0.758c-0.077-0.127-0.094-0.252,0.063-0.252     c0.616-0.032,1.278,0.095,1.483,0.3C68.294,66.188,68.262,66.835,68.137,67.15z"/>
		</g>
	</g>
</g>
<path d="M93.817,36.576c-1.8-3.394-11.554-4.135-16.021-4.183c-2.162-0.032-4.687,0.189-7.671,0.173  c-0.593-0.001-1.198-0.002-1.815-0.003c-0.068-0.135-0.219-0.388-0.402-0.695c-0.268-0.447-0.601-1.002-0.822-1.438  c-0.424-0.797-0.961-1.022-1.637-1.115c-0.005,0-0.01,0.001-0.014,0.002c-0.012-0.008-0.023-0.016-0.038-0.018  c-0.156-0.015-0.257,0.016-0.316,0.092c-0.082,0.106-0.058,0.262-0.019,0.418c0.029,0.097,0.125,0.4,0.242,0.76  c0.195,0.613,0.465,1.453,0.515,1.651c0.031,0.129,0.065,0.241,0.112,0.339c-17.673-0.012-42.744,0.169-46.521,0.433  c-5.683,0.409-10.229,1.799-11.443,2.873c-1.231,1.088-3.125,5.962-3.125,14.339c0.001,8.377,1.895,13.25,3.125,14.325  c1.214,1.089,5.76,2.463,11.443,2.872c3.778,0.277,28.85,0.447,46.522,0.435c-0.045,0.091-0.081,0.2-0.113,0.337  c-0.051,0.215-0.329,1.078-0.533,1.709c-0.108,0.335-0.197,0.61-0.225,0.705c-0.038,0.161-0.061,0.324,0.02,0.427  c0.047,0.06,0.122,0.089,0.222,0.089c0.03,0,0.063-0.002,0.088-0.008h0.048c0.004,0,0.006,0,0.011,0  c0.677-0.093,1.215-0.32,1.637-1.131c0.214-0.415,0.53-0.948,0.787-1.373c0.202-0.335,0.366-0.609,0.439-0.76  c0.615-0.001,1.222-0.002,1.813-0.003c2.984,0,5.509,0.206,7.671,0.189c4.468-0.048,14.222-0.806,16.021-4.183  c0.932-1.753,2.716-8.082,2.716-13.638C96.533,44.658,94.749,38.329,93.817,36.576z M49.053,34.129  c6.692-0.142,13.132-0.206,17.537-0.206l-0.648,0.868c-6.597,0.995-12.643,1.768-18.562,1.879  C47.885,35.756,48.516,34.792,49.053,34.129z M12.875,60.237c-0.964,0-1.279-0.315-1.453-1.122  c-0.584-2.762-0.853-5.635-0.853-8.917c0-3.267,0.268-6.14,0.853-8.902c0.174-0.805,0.489-1.12,1.453-1.12c1.925,0,4.592,0,7.513,0  c1.009,0,1.39,0.441,1.327,1.262c-0.253,2.999-0.333,5.494-0.333,8.761c0,3.283,0.08,5.778,0.333,8.776  c0.063,0.82-0.317,1.264-1.327,1.264C17.467,60.237,14.8,60.237,12.875,60.237z M27.87,64.215l-1.137,0.504  c-0.616,0.302-0.931,0.333-1.578,0.269c-0.679-0.077-1.295-0.158-1.91-0.269c-0.174-0.046-0.711-0.156-1.374-0.315  c-0.758-0.173-0.79-0.283,0.032-0.331c1.784-0.079,3.725-0.159,5.903-0.204C28.312,63.868,28.344,63.993,27.87,64.215z   M27.807,36.528c-2.179-0.047-4.12-0.11-5.903-0.205c-0.821-0.032-0.79-0.158-0.032-0.331c0.663-0.158,1.2-0.269,1.374-0.3  c0.615-0.111,1.23-0.207,1.91-0.269c0.646-0.079,0.962-0.031,1.578,0.252l1.137,0.506C28.344,36.418,28.312,36.545,27.807,36.528z   M45.393,34.192c-0.363,0.742-0.679,1.626-0.931,2.495c-5.682-0.015-10.212-0.032-14.016-0.079l-0.653-0.941l-0.563-0.875  C33.872,34.524,39.632,34.335,45.393,34.192z M29.559,65.604l0.591-0.917l0.624-0.883c3.804-0.062,8.335-0.079,14.018-0.079  c0.252,0.853,0.568,1.753,0.931,2.479C39.961,66.077,34.2,65.871,29.559,65.604z M49.053,66.281  c-0.537-0.662-1.168-1.624-1.673-2.54c5.919,0.11,11.965,0.868,18.562,1.862l0.648,0.884C62.186,66.471,55.745,66.424,49.053,66.281  z M77.016,63.615c-0.477,1.039-0.672,1.367-1.613,1.367c-0.309,0-0.696-0.036-1.183-0.09c-1.876-0.211-4.152-0.546-6.789-0.933  c-1.688-0.248-3.433-0.504-5.272-0.757c-1.263-0.176-1.715-0.705-1.614-1.884c0.43-3.845,0.647-7.586,0.647-11.122  c0-3.544-0.218-7.28-0.646-11.103c-0.102-1.199,0.352-1.727,1.615-1.886c1.811-0.25,3.533-0.504,5.199-0.751  c2.665-0.395,4.968-0.734,6.861-0.939c0.513-0.057,0.892-0.092,1.198-0.092c0.931,0,1.125,0.329,1.597,1.369  c1.725,3.822,2.723,7.24,2.723,13.402C79.738,56.376,78.74,59.793,77.016,63.615z M93.34,59.227  c-0.646,2.009-1.288,3.386-2.018,4.329c-0.743,0.979-1.389,1.266-2.319,1.45c-1.162,0.226-3.712,0.286-5.035,0.286  c-0.22,0-0.295-0.089-0.317-0.162c-0.055-0.176,0.134-0.408,0.288-0.518c0.47-0.355,1.601-1.415,2.277-2.047  c0.245-0.229,0.428-0.398,0.494-0.458c0.056-0.052,0.104-0.112,0.155-0.177c0.155-0.19,0.33-0.407,0.82-0.565  c2.488-0.739,4.379-1.578,5.339-2.369c0.182-0.145,0.285-0.152,0.341-0.072C93.405,58.982,93.397,59.072,93.34,59.227z   M93.365,41.486c-0.022,0.031-0.057,0.049-0.096,0.049c-0.062,0-0.137-0.042-0.246-0.136c-0.958-0.788-2.847-1.627-5.319-2.362  c-0.507-0.153-0.683-0.374-0.838-0.569c-0.051-0.064-0.1-0.126-0.159-0.181c-0.062-0.056-0.23-0.212-0.455-0.424  c-0.642-0.599-1.836-1.714-2.314-2.064c-0.153-0.11-0.346-0.348-0.287-0.529c0.024-0.076,0.099-0.167,0.317-0.167  c1.788,0,4.039,0.093,5.035,0.302c0.93,0.185,1.573,0.468,2.319,1.433c0.742,0.975,1.382,2.357,2.018,4.35  C93.396,41.339,93.405,41.429,93.365,41.486z"/></svg>