<svg xmlns="http://www.w3.org/2000/svg" xmlns:xlink="http://www.w3.org/1999/xlink" version="1.1" id="Layer_1" x="0px" y="0px" width="100px" height="100px" viewBox="5.0 -10.0 100.0 135.0" enable-background="new 0 0 100 100" xml:space="preserve">
<path d="M0.994,50.085L0.994,50.085c0.04,10.611,3.542,17.163,3.813,17.655v0.914l0.087,0.033c0.066,0.024,6.634,2.459,10.647,2.971  c2.66,0.338,5.692,0.108,9.527-0.18c1.968-0.149,4.197-0.317,6.628-0.422c6.58-0.28,28.963-0.483,31.501-0.476  c-0.721,1.194-0.85,3.665-0.855,3.776l-0.005,0.121l0.128,0.013c0.206,0.021,0.476,0.038,0.556-0.003  c1.459-0.372,2.661-3.477,2.869-4.037c0.377-0.024,1.834-0.104,2.73,0.006c0.364,0.042,0.927,0.152,1.581,0.28  c1.229,0.238,2.912,0.565,4.535,0.706c2.171,0.188,4.495-0.09,6.902-0.821c1.994-0.606,10.691-4.412,11.279-4.688  c0.101-0.047,0.221-0.096,0.357-0.152c0.807-0.331,2.158-0.883,2.943-2.352c0.858-1.603,2.647-9.549,2.701-13.346h0.003  c0-0.027-0.003-0.058-0.003-0.086s0.003-0.058,0.003-0.086h-0.003c-0.054-3.796-1.843-11.741-2.701-13.345  c-0.785-1.469-2.137-2.021-2.943-2.352c-0.137-0.057-0.257-0.105-0.357-0.153c-0.588-0.273-9.285-4.08-11.279-4.686  c-2.407-0.733-4.732-1.011-6.902-0.823c-1.623,0.141-3.307,0.468-4.535,0.708c-0.654,0.127-1.217,0.237-1.581,0.28  c-0.896,0.11-2.354,0.03-2.73,0.005c-0.208-0.561-1.408-3.665-2.843-4.027c-0.052-0.024-0.144-0.033-0.247-0.033  c-0.108,0-0.231,0.009-0.335,0.021l-0.128,0.013l0.005,0.121c0.006,0.11,0.135,2.583,0.855,3.777  c-2.54,0.006-24.92-0.196-31.501-0.476c-2.431-0.105-4.66-0.273-6.628-0.423c-3.836-0.289-6.868-0.518-9.527-0.18  c-4.014,0.513-10.581,2.945-10.647,2.97l-0.087,0.034v0.913c-0.132,0.236-1.023,1.889-1.901,4.699  c-0.863,2.765-1.89,7.247-1.909,12.956H0.994c0,0.03,0.001,0.059,0.001,0.09C0.995,50.031,0.994,50.058,0.994,50.085z   M95.292,49.994h-0.003c-0.04,0.045-0.839,0.943-1.468,0.943v-0.943V49.99v-0.929c0.628,0,1.426,0.882,1.468,0.929h0.003  l-0.001,0.002L95.292,49.994z M92.215,35.425c0.963,0.257,1.561,0.643,1.791,1.03c0.23,0.386,1.286,2.428,1.286,2.428  s-7.03,0.92-7.076,0.878c-0.093-0.687-3.769-6.827-3.769-6.784C84.861,33.02,91.249,35.166,92.215,35.425z M88.216,60.237  c0.046-0.042,7.076,0.88,7.076,0.88s-1.056,2.042-1.286,2.427c-0.23,0.387-0.828,0.773-1.791,1.03  c-0.966,0.26-7.354,2.404-7.768,2.448C84.447,67.065,88.123,60.925,88.216,60.237z M38.125,68.695  c-7.628,0.13-13.694,0.302-13.694,0.302l3.492-4.595c0,0,14.432,0.258,17.877,0.258c3.447,0,19.715,3.007,23.253,4.337  C69.053,68.997,45.753,68.567,38.125,68.695z M72.867,32.204c1.931,1.505,5.422,7.524,6.065,9.211  c0.611,1.603,0.726,5.428,0.733,8.349h0.002c0,0.074,0,0.149,0,0.227c0,0.074,0,0.149,0,0.225h-0.002  c-0.008,2.924-0.122,6.753-0.733,8.358c-0.644,1.688-4.135,7.716-6.065,9.223c-0.093-0.047-16.913-3.882-16.913-3.882  s0.407-5.295,0.415-13.924c-0.008-8.622-0.415-13.91-0.415-13.91S72.774,32.249,72.867,32.204z M38.125,31.303  c7.628,0.129,30.928-0.301,30.928-0.301c-3.538,1.33-19.806,4.336-23.253,4.336c-3.445,0-17.877,0.259-17.877,0.259l-3.492-4.595  C24.431,31.002,30.497,31.175,38.125,31.303z M10.368,50.258h0.002c0.03-4.535,0.78-11.269,0.78-11.269s19.576,0.192,19.576,0.242  c-0.704,1.315-0.699,9.421-0.69,11.026h0.002c0,0-0.002,0.049-0.002,0.134c0,0.091,0.002,0.144,0.002,0.144h-0.002  c-0.009,1.536-0.01,9.029,0.69,10.249c0,0.046-19.576,0.226-19.576,0.226s-0.748-6.25-0.78-10.475h-0.002  c0-0.046,0.001-0.096,0.001-0.144C10.369,50.347,10.368,50.301,10.368,50.258z"/></svg>