<svg xmlns="http://www.w3.org/2000/svg" xmlns:xlink="http://www.w3.org/1999/xlink" version="1.1" id="Layer_1" x="0px" y="0px" width="100px" height="100px" viewBox="5.0 -10.0 100.0 135.0" enable-background="new 0 0 100 100" xml:space="preserve">
<path d="M98.288,49.999c0.003-0.013,0.009-0.024,0.009-0.037c0.001-0.051,0.119-5.108-0.927-8.004  c-0.703-1.949-3.016-5.992-7.223-8.783c-0.282-0.188-0.497-0.414-0.706-0.633c-0.276-0.289-0.562-0.589-0.995-0.789  c-0.556-0.255-1.75-0.556-2.541-0.753c-0.184-0.048-0.347-0.088-0.479-0.122c-2.618-0.685-8.208-0.595-10.045-0.564  c-0.244,0.005-0.428,0.007-0.531,0.007c-0.369,0-0.755,0.078-1.244,0.179c-0.706,0.144-1.579,0.319-2.815,0.341H58.867  c-0.249-0.312-1.573-1.934-2.542-2.604c-1.08-0.747-1.551-0.52-1.931-0.338l-0.029,0.016c-0.06,0.027-0.089,0.096-0.073,0.16  l0.712,2.911c-1.968,0.071-21.005,0.761-25.67,0.305c-0.698,0.019-0.896-0.041-1.165-0.121c-0.287-0.085-0.644-0.188-1.673-0.26  c-2.087-0.143-4.296-0.03-6.219,0.312c-1.284,0.231-1.699,0.594-2.1,0.946c-0.22,0.194-0.429,0.377-0.782,0.553  c-0.416,0.205-1.502,0.609-2.758,1.074c-1.862,0.693-4.18,1.554-5.396,2.177c-1.917,0.978-2.435,1.297-2.637,1.916  c-0.526,0.095-1.869,0.75-2.329,1.104C3.573,39.535,1.7,45.353,1.7,49.958c0,0.015,0.004,0.028,0.009,0.041  C1.704,50.013,1.7,50.026,1.7,50.041c0,4.604,1.873,10.423,2.575,10.967c0.46,0.355,1.803,1.011,2.329,1.104  c0.202,0.619,0.72,0.938,2.637,1.915c1.217,0.625,3.534,1.484,5.396,2.178c1.256,0.465,2.342,0.869,2.758,1.074  c0.354,0.176,0.562,0.358,0.782,0.553c0.4,0.352,0.815,0.715,2.1,0.946c1.923,0.343,4.132,0.454,6.219,0.312  c1.029-0.071,1.386-0.176,1.673-0.261c0.27-0.079,0.464-0.137,1.179-0.12c4.651-0.456,23.69,0.233,25.656,0.306l-0.712,2.91  c-0.016,0.063,0.014,0.133,0.073,0.16l0.029,0.016c0.179,0.085,0.378,0.181,0.65,0.181c0.307,0,0.708-0.121,1.28-0.519  c0.969-0.672,2.293-2.293,2.542-2.604h11.922c1.238,0.021,2.111,0.198,2.817,0.341c0.489,0.1,0.875,0.178,1.244,0.178  c0.104,0,0.287,0.003,0.531,0.008c1.838,0.029,7.427,0.12,10.045-0.564c0.132-0.034,0.295-0.075,0.479-0.121  c0.791-0.199,1.985-0.499,2.541-0.754c0.434-0.2,0.719-0.5,0.995-0.789c0.209-0.22,0.424-0.444,0.706-0.633  c4.207-2.792,6.52-6.834,7.223-8.784c1.046-2.895,0.928-7.952,0.927-8.003C98.296,50.023,98.293,50.012,98.288,49.999z   M24.797,36.221c1.817-0.641,13.839-2.535,17.594-2.857s18.385,0,18.166,0c-0.218,0-11.967,3.458-15.764,3.733  c-3.8,0.277-17.946,0.14-20.434,0C24.359,37.097,22.438,37.051,24.797,36.221z M13.062,57.75c-1.801-0.414-2.749-1.521-3.405-2.973  c-0.604-1.34-0.654-4.736-0.654-4.736s0.05-3.479,0.654-4.819c0.656-1.452,1.604-2.56,3.405-2.974c0,0,9.267-1.487,10.871-1.487  s1.833,0.347,1.833,1.695s-0.262,5.504-0.262,7.562c0,2.059,0.262,6.176,0.262,7.525c0,1.348-0.229,1.694-1.833,1.694  S13.062,57.75,13.062,57.75z M42.391,66.636c-3.755-0.322-15.776-2.217-17.594-2.857c-2.358-0.831-0.438-0.876-0.438-0.876  c2.487-0.139,16.634-0.277,20.434,0c3.797,0.274,15.546,3.733,15.764,3.733C60.775,66.636,46.146,66.957,42.391,66.636z   M69.109,49.981L69.109,49.981c-0.05,15.749-4.976,16.515-5.02,16.47c-1.66-0.461-12.88-3.709-12.88-3.709s-1.408-0.255-0.873-1.65  c0.642-1.673,1.54-8.945,1.57-11.226c-0.03-2.271-0.929-9.286-1.57-10.959c-0.535-1.396,0.873-1.65,0.873-1.65  s11.22-3.248,12.88-3.709c0.044-0.046,4.97,0.457,5.019,16.204h0.001c0,0.039,0,0.076,0,0.114  C69.109,49.905,69.109,49.942,69.109,49.981z M82.404,40.988c0.189-0.075,1.3,0.024,2.812,0.648  c1.513,0.623,2.575,1.247,2.505,1.771c-0.023,0.35-2.1-0.25-2.716-0.4c-0.617-0.148-2.519-0.661-2.602-1.046  C82.297,41.459,82.215,41.063,82.404,40.988z M85.217,58.362c-1.513,0.624-2.623,0.725-2.812,0.648  c-0.189-0.075-0.107-0.471,0-0.974c0.083-0.386,1.984-0.897,2.602-1.047c0.616-0.149,2.692-0.75,2.716-0.398  C87.792,57.115,86.729,57.738,85.217,58.362z M94.448,60.373c-1.14,2.391-4.981,5.692-6.664,6.822  c-0.198,0.133-1.067,0.589-0.617,0.076c1.415-1.604,2.862-5.347,3.74-6.452c0.4-0.503,1.489-1.562,2.492-1.935  C94.312,58.545,95.207,58.783,94.448,60.373z M93.399,41.114c-1.003-0.372-2.092-1.432-2.492-1.935  c-0.878-1.105-2.325-4.848-3.74-6.452c-0.45-0.513,0.419-0.056,0.617,0.076c1.683,1.13,5.524,4.433,6.664,6.823  C95.207,41.216,94.312,41.454,93.399,41.114z"/></svg>